<svg width="216" height="64" viewBox="0 0 216 64" fill="none" xmlns="http://www.w3.org/2000/svg">
<path d="M31.1855 56.5846C31.9004 54.8673 32.5998 53.1501 33.3147 51.4483C36.0655 44.8401 38.8163 38.2166 41.5671 31.6084C41.7069 31.2864 41.8623 31.1484 42.2353 31.1484C46.7734 31.1638 51.3114 31.1638 55.865 31.1638C55.9893 31.1638 56.1292 31.1638 56.3467 31.1638C47.9545 39.6731 39.6089 48.1365 31.2633 56.6152C31.2322 56.5999 31.2166 56.5846 31.1855 56.5846Z" fill="#FF501C"/>
<path d="M25.4042 56.5388C17.0897 48.106 8.77514 39.658 0.398438 31.164C0.600473 31.1486 0.724802 31.1486 0.849131 31.1486C5.4027 31.1486 9.95627 31.1486 14.5098 31.1333C14.8517 31.1333 14.9916 31.256 15.1004 31.5319C18.5195 39.7653 21.9385 47.9834 25.3576 56.2168C25.3887 56.3088 25.4353 56.4008 25.4664 56.4928C25.4508 56.5234 25.4198 56.5234 25.4042 56.5388Z" fill="#009264"/>
<path d="M24.9844 5.77378C23.0417 10.4654 21.0991 15.1418 19.1409 19.8334C17.7266 23.2372 16.2969 26.6562 14.8826 30.06C14.7583 30.3666 14.6029 30.4893 14.261 30.4893C9.83172 30.4739 5.41802 30.4739 0.988781 30.4739C0.879992 30.4739 0.755663 30.4739 0.538086 30.4739C8.71275 22.1792 16.8253 13.9458 24.9378 5.72778C24.9688 5.74312 24.9688 5.75845 24.9844 5.77378Z" fill="#009264"/>
<path d="M31.8228 5.7583C39.9198 13.9764 48.0168 22.1944 56.1603 30.4431C56.0049 30.4585 55.8961 30.4738 55.7874 30.4738C51.3115 30.4738 46.8356 30.4738 42.3598 30.4738C42.08 30.4738 41.9557 30.3971 41.8469 30.1365C38.5211 22.1024 35.1642 14.0684 31.8228 6.03428C31.7917 5.94229 31.7607 5.85029 31.7451 5.7583C31.7607 5.77363 31.7917 5.77363 31.8228 5.7583Z" fill="#FF501C"/>
<path d="M115.683 43.1076C112.093 36.4228 108.565 29.8299 105.022 23.2524C104.991 23.2524 104.959 23.2677 104.913 23.2677C104.913 29.5233 104.913 35.7941 104.913 42.0803C103.157 42.0803 101.463 42.0803 99.7532 42.0803C99.7532 32.5284 99.7532 23.0071 99.7532 13.4398C99.9241 13.4245 100.064 13.4091 100.219 13.4091C101.634 13.4091 103.048 13.4245 104.462 13.3938C104.804 13.3938 104.975 13.5011 105.146 13.7924C108.565 19.864 111.984 25.9355 115.403 31.9917C115.481 32.1297 115.559 32.2677 115.683 32.467C115.823 32.2524 115.932 32.0991 116.025 31.9304C119.428 25.9049 122.832 19.8793 126.22 13.8384C126.406 13.5011 126.624 13.3938 126.997 13.3938C128.364 13.4245 129.732 13.4091 131.1 13.4091C131.659 13.4091 131.659 13.4091 131.659 13.9918C131.659 17.7328 131.659 21.4585 131.659 25.1996C131.659 30.6425 131.659 36.0854 131.659 41.5284C131.659 42.1263 131.659 42.1263 131.069 42.1263C129.717 42.1263 128.364 42.111 127.012 42.1417C126.593 42.157 126.468 42.0343 126.468 41.6204C126.484 35.6715 126.484 29.7226 126.484 23.789C126.484 23.6204 126.484 23.467 126.484 23.2984C126.437 23.2831 126.406 23.2831 126.36 23.2677C122.801 29.8299 119.273 36.4228 115.683 43.1076Z" fill="#FF501C"/>
<path d="M76.5502 21.5353C76.5502 21.7347 76.5502 21.9186 76.5502 22.118C76.5502 28.5575 76.5502 34.9817 76.5502 41.4212C76.5502 42.0805 76.5502 42.0805 75.8819 42.0805C74.5609 42.0805 73.24 42.0652 71.9034 42.0805C71.5615 42.0805 71.4216 41.9885 71.4216 41.6205C71.4372 32.3905 71.4372 23.1452 71.4216 13.9152C71.4216 13.5626 71.5149 13.4399 71.8879 13.4399C73.3332 13.4553 74.763 13.4553 76.2083 13.4399C76.5191 13.4399 76.7212 13.5779 76.9077 13.7926C79.0213 16.3377 81.1349 18.8675 83.264 21.4127C86.5743 25.3684 89.8845 29.3241 93.1793 33.2798C93.257 33.3718 93.3502 33.4638 93.5212 33.6478C93.5523 33.3565 93.5833 33.1418 93.5833 32.9425C93.5833 26.733 93.5833 20.5387 93.5833 14.3292C93.5833 14.2066 93.5989 14.0686 93.5833 13.9459C93.5367 13.5626 93.7077 13.4553 94.0807 13.4553C95.4638 13.4706 96.847 13.4706 98.2301 13.4553C98.6187 13.4553 98.7119 13.5933 98.7119 13.9612C98.6964 23.1606 98.6964 32.3752 98.7119 41.5745C98.7119 42.0038 98.5721 42.0958 98.168 42.0958C96.7848 42.0805 95.4017 42.0805 94.0185 42.0958C93.661 42.0958 93.4279 41.9732 93.2104 41.7125C90.2575 38.0788 87.2892 34.4757 84.3363 30.842C81.8653 27.8215 79.4098 24.8011 76.9387 21.7807C76.861 21.6887 76.7678 21.5967 76.6745 21.5047C76.6435 21.5047 76.5968 21.52 76.5502 21.5353Z" fill="#009264"/>
<path d="M132.607 42.0804C132.607 32.5284 132.607 23.0071 132.607 13.4552C132.763 13.4398 132.918 13.4245 133.074 13.4245C141.217 13.4245 149.345 13.4245 157.489 13.4092C157.909 13.4092 158.002 13.5318 158.002 13.9151C157.986 15.1417 157.971 16.353 158.002 17.5795C158.017 17.9935 157.893 18.1162 157.473 18.1162C151.133 18.1008 144.776 18.1008 138.435 18.1008C137.689 18.1008 137.783 18.0548 137.783 18.7601C137.783 20.83 137.783 22.8998 137.783 24.9697C137.783 25.123 137.783 25.2763 137.783 25.491C138.031 25.5063 138.233 25.5216 138.451 25.5216C143.471 25.5216 148.491 25.5216 153.51 25.5216C154.116 25.5216 154.116 25.5216 154.116 26.1349C154.116 27.3155 154.116 28.4961 154.116 29.6613C154.116 29.8146 154.116 29.968 154.116 30.1826C148.662 30.1826 143.253 30.1826 137.798 30.1826C137.783 30.3973 137.767 30.5659 137.767 30.7346C137.767 32.7737 137.767 34.8129 137.767 36.8521C137.767 37.4347 137.767 37.4347 138.358 37.4347C144.683 37.4347 151.024 37.4347 157.349 37.4347C157.986 37.4347 157.986 37.4347 157.986 38.0634C157.986 39.2746 157.971 40.4705 157.986 41.6818C157.986 42.0191 157.862 42.1264 157.536 42.1264C149.361 42.1264 141.171 42.1264 132.996 42.1264C132.872 42.1111 132.747 42.0957 132.607 42.0804Z" fill="#FF501C"/>
<path d="M193.746 12.9646C198.782 22.7005 203.786 32.3598 208.821 42.0804C208.619 42.0958 208.479 42.1111 208.34 42.1264C206.785 42.1264 205.231 42.1264 203.662 42.1418C203.351 42.1418 203.195 42.0344 203.056 41.7738C202.201 40.1179 201.315 38.462 200.46 36.8062C200.305 36.5149 200.134 36.3922 199.792 36.3922C195.751 36.4075 191.695 36.4075 187.654 36.3922C187.328 36.3922 187.172 36.4995 187.017 36.7755C186.147 38.4774 185.245 40.1639 184.328 41.8505C184.266 41.9731 184.08 42.1264 183.94 42.1264C182.23 42.1418 180.536 42.1418 178.827 42.1264C178.78 42.1264 178.749 42.0958 178.64 42.0651C183.707 32.3598 188.711 22.7005 193.746 12.9646ZM197.803 31.6699C196.451 29.0634 195.13 26.5336 193.762 23.8965C192.394 26.5336 191.073 29.0787 189.721 31.6699C192.441 31.6699 195.083 31.6699 197.803 31.6699Z" fill="#FF501C"/>
<path d="M175.19 42.0803C173.465 42.0803 171.787 42.0803 170.046 42.0803C170.046 41.8657 170.046 41.6817 170.046 41.4977C170.046 33.9083 170.046 26.3342 170.046 18.7447C170.046 18.0855 170.046 18.0855 169.378 18.0855C166.037 18.0855 162.711 18.0855 159.369 18.1008C158.965 18.1008 158.81 18.0088 158.826 17.5795C158.857 16.3376 158.841 15.111 158.826 13.8691C158.826 13.5318 158.903 13.3938 159.276 13.3938C168.15 13.4091 177.04 13.4091 185.914 13.3938C186.287 13.3938 186.395 13.5165 186.38 13.8691C186.364 15.111 186.364 16.3682 186.38 17.6102C186.38 17.9935 186.256 18.1008 185.883 18.1008C182.541 18.0855 179.184 18.0855 175.843 18.0855C175.175 18.0855 175.159 18.0855 175.159 18.7754C175.159 26.3342 175.159 33.8776 175.159 41.4364C175.19 41.651 175.19 41.8504 175.19 42.0803Z" fill="#FF501C"/>
<path d="M65.2363 27.76C65.2363 23.1757 65.2363 18.5914 65.2363 14.0224C65.2363 13.4551 65.2363 13.4551 65.8114 13.4551C67.1168 13.4551 68.4378 13.4551 69.7433 13.4551C70.3805 13.4551 70.3805 13.4551 70.3805 14.0684C70.3805 20.9832 70.3805 27.9133 70.3805 34.8282C70.3805 37.036 70.3805 39.2438 70.3805 41.467C70.3805 42.0803 70.3805 42.0803 69.7899 42.0803C68.4378 42.0803 67.0857 42.065 65.7336 42.0956C65.3451 42.0956 65.2363 41.973 65.2519 41.605C65.2519 36.9747 65.2363 32.375 65.2363 27.76Z" fill="#009264"/>
<path d="M67.4431 47.8145V49.7311C66.8836 50.1297 66.3242 50.329 65.7647 50.329C65.0653 50.329 64.4903 50.099 64.0241 49.6237C63.5578 49.1638 63.3247 48.5965 63.3247 47.9525C63.3247 47.2932 63.5578 46.7259 64.0396 46.2813C64.5058 45.8367 65.0809 45.6067 65.7336 45.6067C66.2154 45.6067 66.6972 45.7447 67.1789 46.0053V46.6953C66.7438 46.3426 66.2775 46.174 65.7802 46.174C65.2518 46.174 64.8167 46.3426 64.4437 46.6799C64.0862 47.0173 63.8997 47.4466 63.8997 47.9678C63.8997 48.4738 64.0862 48.9031 64.4437 49.2558C64.8011 49.6084 65.2674 49.777 65.8113 49.777C66.1843 49.777 66.5417 49.6697 66.9147 49.4551V48.3358H65.889V47.8145H67.4431Z" fill="black"/>
<path d="M70.1006 50.2985V45.6528H72.9913V46.2048H70.6601V47.6307H72.6183V48.152H70.6756V49.7159H73.0379V50.2678H70.1006V50.2985Z" fill="black"/>
<path d="M77.9957 49.9764C77.7004 50.2064 77.3274 50.3291 76.8767 50.3291C76.426 50.3291 75.9443 50.1911 75.4314 49.8998V49.2251C75.9598 49.5778 76.4416 49.7618 76.8767 49.7618C77.1565 49.7618 77.3896 49.7004 77.5916 49.5624C77.7781 49.4398 77.8713 49.2711 77.8713 49.0718C77.8713 49.0105 77.8713 48.9645 77.8558 48.9185C77.8403 48.8725 77.8092 48.8265 77.7781 48.7652C77.747 48.7192 77.7159 48.6732 77.6693 48.6425C77.6382 48.6119 77.5916 48.5659 77.5294 48.5352C77.4673 48.4892 77.4206 48.4585 77.374 48.4279C77.3429 48.3972 77.2808 48.3665 77.2031 48.3359C77.1254 48.3052 77.0632 48.2745 77.0321 48.2592C77.001 48.2439 76.9389 48.2132 76.8456 48.1825C76.7524 48.1519 76.7058 48.1212 76.6902 48.1212C76.2551 47.9526 75.9443 47.7686 75.7422 47.5846C75.5402 47.4006 75.4314 47.1553 75.4314 46.8486C75.4314 46.4653 75.5713 46.1587 75.8666 45.944C76.1618 45.7294 76.5193 45.6221 76.9544 45.6221C77.343 45.6374 77.747 45.7447 78.1666 45.944V46.6033C77.7781 46.3274 77.374 46.1894 76.9544 46.1894C76.6747 46.1894 76.4416 46.2507 76.2551 46.358C76.0686 46.4653 75.9753 46.634 75.9753 46.8333C75.9753 46.9713 76.022 47.0786 76.1307 47.186C76.224 47.2933 76.3328 47.3699 76.426 47.4159C76.5193 47.4619 76.6747 47.5386 76.9078 47.6306C76.9544 47.6459 76.9855 47.6613 77.001 47.6766C77.2342 47.7686 77.4051 47.8606 77.5605 47.9219C77.7159 47.9832 77.8558 48.0906 77.9957 48.1979C78.1511 48.3052 78.2599 48.4432 78.322 48.5812C78.3997 48.7192 78.4308 48.8878 78.4308 49.0718C78.4308 49.4398 78.2909 49.7464 77.9957 49.9764Z" fill="black"/>
<path d="M84.6939 45.6528V46.2048H83.031V50.2832H82.4715V46.2048H80.8086V45.6528H84.6939Z" fill="black"/>
<path d="M89.7136 50.2985L89.2318 49.0565H87.3513L86.8695 50.2985H86.2634L88.0507 45.6681H88.5169L90.3041 50.2985H89.7136ZM87.5223 45.3002H87.1648C87.1493 45.0242 87.2114 44.7942 87.3202 44.6102C87.429 44.4262 87.5844 44.3342 87.802 44.3342C87.9263 44.3342 88.0507 44.3802 88.175 44.4569C88.2993 44.5335 88.4081 44.6102 88.5014 44.6869C88.5946 44.7635 88.6878 44.8095 88.7811 44.8095C88.9831 44.8095 89.0764 44.6562 89.0764 44.3342H89.4494C89.4649 44.6102 89.4027 44.8402 89.3095 45.0395C89.2007 45.2235 89.0453 45.3155 88.8277 45.3155C88.6878 45.3155 88.5635 45.2695 88.4547 45.1928C88.3459 45.1162 88.2372 45.0395 88.1284 44.9628C88.0351 44.8862 87.9419 44.8402 87.8486 44.8402C87.631 44.8402 87.5223 44.9935 87.5223 45.3002ZM87.5533 48.5199H89.0297L88.4858 47.094L88.2993 46.5881H88.2838L88.0973 47.094L87.5533 48.5199Z" fill="black"/>
<path d="M96.2255 49.6544C95.8059 50.1144 95.2775 50.3444 94.6247 50.3444C93.9875 50.3444 93.4592 50.1144 93.0395 49.6544C92.6199 49.1945 92.4023 48.6272 92.4023 47.9679C92.4023 47.3086 92.6044 46.7567 93.024 46.2967C93.4436 45.8521 93.972 45.6221 94.6247 45.6221C95.2775 45.6221 95.8059 45.8521 96.2255 46.2967C96.6451 46.7567 96.8471 47.3086 96.8471 47.9679C96.8627 48.6272 96.6451 49.1945 96.2255 49.6544ZM94.6247 49.7771C95.1065 49.7771 95.495 49.5931 95.8059 49.2405C96.1167 48.8878 96.2876 48.4585 96.2876 47.9679C96.2876 47.4773 96.1322 47.0633 95.8214 46.7107C95.5106 46.358 95.1065 46.1894 94.6247 46.1894C94.143 46.1894 93.7544 46.3733 93.4436 46.726C93.1328 47.0786 92.9774 47.5079 92.9774 47.9986C92.9774 48.4892 93.1328 48.9185 93.4591 49.2711C93.77 49.5931 94.1585 49.7771 94.6247 49.7771Z" fill="black"/>
<path d="M102.442 50.2985V45.6528H103.001V50.2832H102.442V50.2985Z" fill="black"/>
<path d="M109.062 50.2983L106.436 46.6339H106.42V50.283H105.861V45.6833H106.467L109.078 49.3477H109.093V45.6833H109.653V50.2983H109.062Z" fill="black"/>
<path d="M116.103 45.6528V46.2048H114.44V50.2832H113.88V46.2048H112.218V45.6528H116.103Z" fill="black"/>
<path d="M118.667 50.2985V45.6528H121.558V46.2048H119.226V47.6307H121.169V48.152H119.226V49.7159H121.589V50.2678H118.667V50.2985Z" fill="black"/>
<path d="M124.199 50.2985V45.6528H124.759V49.7312H127.121V50.2832H124.199V50.2985Z" fill="black"/>
<path d="M129.732 50.2985V45.6528H130.292V50.2832H129.732V50.2985Z" fill="black"/>
<path d="M137.052 47.8145V49.7311C136.493 50.1297 135.933 50.329 135.374 50.329C134.674 50.329 134.099 50.099 133.633 49.6237C133.167 49.1638 132.934 48.5965 132.934 47.9525C132.934 47.2932 133.167 46.7259 133.649 46.2813C134.115 45.8367 134.69 45.6067 135.343 45.6067C135.824 45.6067 136.306 45.7447 136.788 46.0053V46.6953C136.353 46.3426 135.886 46.174 135.389 46.174C134.861 46.174 134.426 46.3426 134.053 46.6799C133.695 47.0173 133.509 47.4466 133.509 47.9678C133.509 48.4738 133.695 48.9031 134.053 49.2558C134.41 49.6084 134.876 49.777 135.42 49.777C135.793 49.777 136.151 49.6697 136.524 49.4551V48.3358H135.498V47.8145H137.052Z" fill="black"/>
<path d="M139.71 50.2985V45.6528H142.6V46.2048H140.269V47.6307H142.212V48.152H140.269V49.7159H142.631V50.2678H139.71V50.2985Z" fill="black"/>
<path d="M148.459 50.2983L145.833 46.6339H145.817V50.283H145.258V45.6833H145.864L148.475 49.3477H148.49V45.6833H149.05V50.2983H148.459Z" fill="black"/>
<path d="M155.5 45.6528V46.2048H153.837V50.2832H153.277V46.2048H151.614V45.6528H155.5Z" fill="black"/>
<path d="M158.064 50.2985V45.6528H160.955V46.2048H158.623V47.6307H160.566V48.152H158.623V49.7159H160.986V50.2678H158.064V50.2985Z" fill="black"/>
<path d="M167.761 45.6528C168.476 45.6528 169.036 45.8522 169.471 46.2661C169.906 46.6648 170.124 47.232 170.124 47.9373C170.124 48.6579 169.906 49.2252 169.455 49.6545C169.005 50.0838 168.43 50.2985 167.73 50.2985H166.534V45.6528H167.761ZM167.73 49.7312C168.29 49.7312 168.725 49.5779 169.067 49.2559C169.393 48.9339 169.564 48.4893 169.564 47.9373C169.564 47.3547 169.393 46.9254 169.051 46.6494C168.709 46.3734 168.274 46.2201 167.746 46.2201H167.124V49.7312H167.73Z" fill="black"/>
<path d="M172.735 50.2985V45.6528H175.625V46.2048H173.294V47.6307H175.237V48.152H173.294V49.7159H175.656V50.2678H172.735V50.2985Z" fill="black"/>
<path d="M184.826 49.6544C184.406 50.1144 183.878 50.3444 183.225 50.3444C182.588 50.3444 182.059 50.1144 181.64 49.6544C181.22 49.1945 181.003 48.6272 181.003 47.9679C181.003 47.3086 181.205 46.7567 181.624 46.2967C182.044 45.8521 182.572 45.6221 183.225 45.6221C183.878 45.6221 184.406 45.8521 184.826 46.2967C185.245 46.7567 185.447 47.3086 185.447 47.9679C185.463 48.6272 185.245 49.1945 184.826 49.6544ZM183.241 49.7771C183.722 49.7771 184.111 49.5931 184.422 49.2405C184.733 48.8878 184.903 48.4585 184.903 47.9679C184.903 47.4773 184.748 47.0633 184.437 46.7107C184.126 46.358 183.722 46.1894 183.241 46.1894C182.759 46.1894 182.37 46.3733 182.059 46.726C181.749 47.0786 181.593 47.5079 181.593 47.9986C181.593 48.4892 181.749 48.9185 182.075 49.2711C182.37 49.5931 182.759 49.7771 183.241 49.7771Z" fill="black"/>
<path d="M190.436 47.876C190.7 47.9527 190.918 48.106 191.073 48.29C191.244 48.4893 191.322 48.7346 191.322 49.0259C191.322 49.3939 191.198 49.7005 190.933 49.9305C190.685 50.1605 190.358 50.2832 189.97 50.2832H188.307H188.105V45.6528H189.675C190.063 45.6528 190.39 45.7602 190.654 45.9901C190.902 46.2201 191.042 46.5114 191.042 46.8641C191.042 47.0941 190.996 47.2934 190.887 47.4774C190.763 47.646 190.607 47.784 190.436 47.876ZM189.628 46.2201H188.664V47.6767H189.675C189.923 47.6767 190.11 47.6154 190.25 47.4774C190.39 47.3394 190.452 47.1707 190.452 46.9561C190.452 46.7414 190.374 46.5574 190.219 46.4348C190.094 46.2815 189.877 46.2201 189.628 46.2201ZM189.892 49.7312C190.156 49.7312 190.374 49.6545 190.529 49.5165C190.685 49.3786 190.762 49.1946 190.762 48.9646C190.762 48.7193 190.685 48.5353 190.514 48.3973C190.343 48.2593 190.141 48.1826 189.892 48.1826H188.664V49.7159H189.892V49.7312Z" fill="black"/>
<path d="M197.212 50.2985H196.559L195.565 48.3206H195.534H194.492V50.2985H193.933V45.6528H195.549C196.015 45.6528 196.373 45.7755 196.621 46.0208C196.886 46.2661 197.01 46.5881 197.01 46.9867C197.01 47.2934 196.932 47.554 196.792 47.7687C196.637 47.9833 196.435 48.1366 196.155 48.2286L197.212 50.2985ZM194.492 46.2201V47.7687H195.549C195.813 47.7687 196.031 47.7073 196.202 47.5847C196.373 47.462 196.451 47.2627 196.451 47.0021C196.451 46.4808 196.155 46.2355 195.549 46.2355H194.492V46.2201Z" fill="black"/>
<path d="M202.9 50.2985L202.418 49.0566H200.538L200.056 50.2985H199.45L201.237 45.6682H201.703L203.491 50.2985H202.9ZM200.74 48.52H202.216L201.672 47.0941L201.486 46.5881H201.47L201.284 47.0941L200.74 48.52Z" fill="black"/>
<path d="M208.402 49.9764C208.106 50.2064 207.733 50.3291 207.283 50.3291C206.832 50.3291 206.35 50.1911 205.837 49.8998V49.2251C206.366 49.5778 206.848 49.7618 207.283 49.7618C207.562 49.7618 207.796 49.7004 207.998 49.5624C208.184 49.4398 208.277 49.2711 208.277 49.0718C208.277 49.0105 208.277 48.9645 208.262 48.9185C208.246 48.8725 208.215 48.8265 208.184 48.7652C208.153 48.7192 208.122 48.6732 208.075 48.6425C208.044 48.6119 207.998 48.5659 207.935 48.5352C207.873 48.4892 207.827 48.4585 207.78 48.4279C207.749 48.3972 207.687 48.3665 207.609 48.3359C207.531 48.3052 207.469 48.2745 207.438 48.2592C207.407 48.2439 207.345 48.2132 207.252 48.1825C207.158 48.1519 207.112 48.1212 207.096 48.1212C206.661 47.9526 206.35 47.7686 206.148 47.5846C205.946 47.4006 205.837 47.1553 205.837 46.8486C205.837 46.4653 205.977 46.1587 206.273 45.944C206.568 45.7294 206.925 45.6221 207.36 45.6221C207.749 45.6374 208.153 45.7447 208.573 45.944V46.6033C208.184 46.3274 207.78 46.1894 207.36 46.1894C207.081 46.1894 206.848 46.2507 206.661 46.358C206.475 46.4653 206.381 46.634 206.381 46.8333C206.381 46.9713 206.428 47.0786 206.537 47.186C206.63 47.2933 206.739 47.3699 206.832 47.4159C206.925 47.4619 207.081 47.5386 207.314 47.6306C207.36 47.6459 207.392 47.6613 207.407 47.6766C207.64 47.7686 207.811 47.8606 207.967 47.9219C208.106 47.9986 208.262 48.0906 208.402 48.1979C208.557 48.3052 208.666 48.4432 208.728 48.5812C208.806 48.7192 208.837 48.8878 208.837 49.0718C208.837 49.4398 208.681 49.7464 208.402 49.9764Z" fill="black"/>
</svg>
